<svg width="15" height="17" viewBox="0 0 15 17" fill="none" xmlns="http://www.w3.org/2000/svg">
<g id="Vector">
<path id="vector-10" d="M8.30294 4.27086C8.56199 3.94765 8.50997 3.47563 8.18675 3.21659C7.86354 2.95754 7.39152 3.00956 7.13248 3.33277L8.30294 4.27086ZM1.57396 11.4674L2.14199 11.9572C2.14785 11.9504 2.15358 11.9435 2.15919 11.9365L1.57396 11.4674ZM1.39583 11.9029L0.64729 11.854L0.646636 11.8682L1.39583 11.9029ZM1.25 15.0518L0.500803 15.0171C0.499078 15.0544 0.500133 15.0917 0.503958 15.1288L1.25 15.0518ZM2.06979 15.7674L2.09431 16.517C2.14433 16.5154 2.19406 16.5088 2.24275 16.4972L2.06979 15.7674ZM5.19479 15.0268L5.36777 15.7567L5.37941 15.7537L5.19479 15.0268ZM5.59583 14.7727L6.17444 15.25L6.18094 15.2419L5.59583 14.7727ZM12.4726 7.39602C12.7317 7.07288 12.6798 6.60085 12.3567 6.34171C12.0336 6.08258 11.5615 6.13447 11.3024 6.45761L12.4726 7.39602ZM7.13576 3.33258C6.8766 3.6557 6.92846 4.12774 7.25159 4.38689C7.57472 4.64605 8.04675 4.59419 8.30591 4.27106L7.13576 3.33258ZM9.375 1.73932L9.96007 2.20856C9.96993 2.19627 9.9794 2.18367 9.98846 2.17078L9.375 1.73932ZM11.0719 1.40598L11.5517 0.829544C11.5278 0.809663 11.5027 0.791286 11.4765 0.774518L11.0719 1.40598ZM13.4021 3.34557L13.9329 2.81573C13.9166 2.79942 13.8996 2.78387 13.8819 2.76913L13.4021 3.34557ZM13.7531 4.20065L14.503 4.20477V4.20477L13.7531 4.20065ZM13.3927 5.05182L12.8677 4.51618C12.8465 4.53701 12.8265 4.55909 12.8078 4.58231L13.3927 5.05182ZM11.3026 6.45731C11.0433 6.78031 11.095 7.25237 11.418 7.51168C11.741 7.77098 12.2131 7.71934 12.4724 7.39633L11.3026 6.45731ZM8.46255 3.69067C8.40117 3.28103 8.01932 2.99871 7.60968 3.0601C7.20004 3.12148 6.91773 3.50333 6.97911 3.91297L8.46255 3.69067ZM11.9885 7.66999C12.3989 7.61422 12.6864 7.23628 12.6307 6.82584C12.5749 6.4154 12.197 6.12788 11.7865 6.18365L11.9885 7.66999ZM7.13248 3.33277L0.988726 10.9984L2.15919 11.9365L8.30294 4.27086L7.13248 3.33277ZM1.00593 10.9777C0.794362 11.2231 0.668508 11.5307 0.647423 11.8541L2.14424 11.9517C2.14411 11.9537 2.14332 11.9556 2.14199 11.9572L1.00593 10.9777ZM0.646636 11.8682L0.500803 15.0171L1.9992 15.0865L2.14503 11.9376L0.646636 11.8682ZM0.503958 15.1288C0.587353 15.9373 1.28192 16.5436 2.09431 16.517L2.04527 15.0178C2.02012 15.0187 1.99862 14.9999 1.99604 14.9749L0.503958 15.1288ZM2.24275 16.4972L5.36775 15.7566L5.02183 14.297L1.89683 15.0377L2.24275 16.4972ZM5.37941 15.7537C5.69121 15.6745 5.96967 15.4981 6.17438 15.2499L5.01728 14.2954C5.01545 14.2976 5.01296 14.2992 5.01017 14.2999L5.37941 15.7537ZM6.18094 15.2419L12.4726 7.39602L11.3024 6.45761L5.01073 14.3034L6.18094 15.2419ZM8.30591 4.27106L9.96007 2.20856L8.78993 1.27008L7.13576 3.33258L8.30591 4.27106ZM9.98846 2.17078C10.1425 1.95176 10.4418 1.89297 10.6672 2.03745L11.4765 0.774518C10.5747 0.196613 9.37772 0.431753 8.76154 1.30785L9.98846 2.17078ZM10.5921 1.98242L12.9223 3.92201L13.8819 2.76913L11.5517 0.829544L10.5921 1.98242ZM12.8713 3.87541C12.9563 3.96058 13.0037 4.07619 13.0031 4.19653L14.503 4.20477C14.5059 3.68424 14.3006 3.18414 13.9329 2.81573L12.8713 3.87541ZM13.0031 4.19653C13.0024 4.31686 12.9537 4.43195 12.8677 4.51618L13.9177 5.58746C14.2894 5.2231 14.5002 4.7253 14.503 4.20477L13.0031 4.19653ZM12.8078 4.58231L11.3026 6.45731L12.4724 7.39633L13.9776 5.52133L12.8078 4.58231ZM6.97911 3.91297C7.34049 6.32449 9.57223 7.9983 11.9885 7.66999L11.7865 6.18365C10.1832 6.4015 8.70234 5.29084 8.46255 3.69067L6.97911 3.91297Z" fill="#B3B7EE"/>
</g>
</svg>
